<?xml version="1.0" standalone="no"?><!DOCTYPE svg PUBLIC "-//W3C//DTD SVG 1.1//EN" "http://www.w3.org/Graphics/SVG/1.1/DTD/svg11.dtd"><svg t="1622882838666" class="icon" viewBox="0 0 1024 1024" version="1.1" xmlns="http://www.w3.org/2000/svg" p-id="2986" xmlns:xlink="http://www.w3.org/1999/xlink" width="200" height="200"><defs><style type="text/css"></style></defs><path d="M1024 701.0304V196.881067A196.949333 196.949333 0 0 0 827.050667 0H196.9152A196.949333 196.949333 0 0 0 0 196.881067v630.237866A196.881067 196.881067 0 0 0 196.881067 1024H827.050667a197.085867 197.085867 0 0 0 193.8432-162.133333c-52.224-22.562133-278.528-120.32-396.424534-176.571734-89.7024 108.680533-183.671467 173.909333-325.290666 173.909334-141.653333 0-236.202667-87.2448-224.836267-194.013867 7.509333-70.075733 55.534933-184.661333 264.328533-165.000533 110.011733 10.308267 160.3584 30.856533 250.094934 60.484266a707.003733 707.003733 0 0 0 57.1392-139.264H248.081067V381.952h196.846933V311.1936H204.8V267.810133h240.128V165.649067s2.184533-16.008533 19.831467-16.008534H563.2v118.1696H819.2v43.349334h-256v70.826666h208.827733c-19.182933 78.165333-48.3328 149.947733-84.7872 212.650667C747.861333 616.6528 1024 701.064533 1024 701.064533zM283.511467 791.586133c-149.640533 0-173.294933-94.446933-165.376-133.9392 7.850667-39.287467 51.2-90.555733 134.417066-90.555733 95.607467 0 181.248 24.439467 283.989334 74.478933-72.157867 94.037333-160.8704 150.016-253.0304 150.016z" fill="#0091FF" p-id="2987"></path></svg>