<?xml version="1.0" standalone="no"?><!DOCTYPE svg PUBLIC "-//W3C//DTD SVG 1.1//EN" "http://www.w3.org/Graphics/SVG/1.1/DTD/svg11.dtd"><svg t="1608262822443" class="icon" viewBox="0 0 1170 1024" version="1.1" xmlns="http://www.w3.org/2000/svg" p-id="1708" xmlns:xlink="http://www.w3.org/1999/xlink" width="228.515625" height="200"><defs><style type="text/css"></style></defs><path d="M1024.000878 0c80.457143 0 146.285714 64.482743 146.285714 143.301486v716.507428c0 78.818743-65.828571 143.301486-146.285714 143.301486H146.286592c-80.457143 0-142.862629-67.496229-143.213714-146.285714L0.000878 140.288C-0.320951 61.469257 70.335049 0.468114 150.792192 0H1024.000878z m0 71.68l-865.543315 1.2288c-43.885714 0.234057-78.994286 30.047086-79.140571 73.025829l-2.311314 628.033828 239.030857-286.72c29.257143-28.672 65.828571-28.672 87.771428 0l212.114286 265.069714 204.8-200.616228c29.257143-28.672 73.142857-28.672 95.085714 7.168l181.335772 226.655086V143.301486c0-35.84-36.571429-71.650743-73.142857-71.650743zM817.913563 169.984c63.488 0 114.980571 50.439314 114.980572 112.64 0 62.200686-51.492571 112.64-114.980572 112.64s-114.980571-50.439314-114.980571-112.64c0-62.200686 51.492571-112.64 114.980571-112.64z" p-id="1709" fill="#999999"></path></svg>