<?xml version="1.0" standalone="no"?><!DOCTYPE svg PUBLIC "-//W3C//DTD SVG 1.1//EN" "http://www.w3.org/Graphics/SVG/1.1/DTD/svg11.dtd"><svg t="1603328004689" class="icon" viewBox="0 0 1024 1024" version="1.1" xmlns="http://www.w3.org/2000/svg" p-id="3878" xmlns:xlink="http://www.w3.org/1999/xlink" width="16" height="16"><defs><style type="text/css"></style></defs><path d="M512 64a448 448 0 1 0 0 896A448 448 0 0 0 512 64z" fill="#D23C26" p-id="3879"></path><path d="M536.384 515.008l131.264-156.48a3.968 3.968 0 0 0-3.072-6.528h-39.872a8.128 8.128 0 0 0-6.144 2.88L510.336 483.84 402.048 354.88a8 8 0 0 0-6.144-2.88h-39.872a3.968 3.968 0 0 0-3.072 6.528l131.2 156.48-131.2 156.416a3.968 3.968 0 0 0 3.072 6.592h39.872a8.128 8.128 0 0 0 6.144-2.88l108.288-129.024 108.16 129.024a8 8 0 0 0 6.208 2.88h39.872a3.968 3.968 0 0 0 3.072-6.592l-131.2-156.416z" fill="#FFFFFF" p-id="3880"></path></svg>