<?xml version="1.0" standalone="no"?><!DOCTYPE svg PUBLIC "-//W3C//DTD SVG 1.1//EN" "http://www.w3.org/Graphics/SVG/1.1/DTD/svg11.dtd"><svg t="1622882816063" class="icon" viewBox="0 0 1024 1024" version="1.1" xmlns="http://www.w3.org/2000/svg" p-id="2171" xmlns:xlink="http://www.w3.org/1999/xlink" width="200" height="200"><defs><style type="text/css"></style></defs><path d="M390.4 615.5c-4.1 2.1-8.3 3.1-13.4 3.1-11.4 0-20.7-6.2-25.9-15.5L349 599l-81.7-178c-1-2.1-1-4.1-1-6.2 0-8.3 6.2-14.5 14.5-14.5 3.1 0 6.2 1 9.3 3.1l96.2 68.3c7.2 4.1 15.5 7.2 24.8 7.2 5.2 0 10.3-1 15.5-3.1l451.1-200.7C797 179.9 663.6 117.8 512.5 117.8c-246.2 0-446.9 166.6-446.9 372.4 0 111.7 60 213.1 154.1 281.4 7.2 5.2 12.4 14.5 12.4 23.8 0 3.1-1 6.2-2.1 9.3-7.2 27.9-19.7 73.5-19.7 75.5-1 3.1-2.1 7.2-2.1 11.4 0 8.3 6.2 14.5 14.5 14.5 3.1 0 6.2-1 8.3-3.1l97.2-56.9c7.2-4.1 15.5-7.2 23.8-7.2 4.1 0 9.3 1 13.4 2.1 45.5 13.4 95.2 20.7 145.9 20.7 246.2 0 446.9-166.6 446.9-372.4 0-62.1-18.6-121-50.7-172.8l-514 296.9-3.1 2.1z" fill="#09BB07" p-id="2172"></path></svg>