<?xml version="1.0" standalone="no"?><!DOCTYPE svg PUBLIC "-//W3C//DTD SVG 1.1//EN" "http://www.w3.org/Graphics/SVG/1.1/DTD/svg11.dtd"><svg t="1622882851533" class="icon" viewBox="0 0 1024 1024" version="1.1" xmlns="http://www.w3.org/2000/svg" p-id="3168" xmlns:xlink="http://www.w3.org/1999/xlink" width="200" height="200"><defs><style type="text/css"></style></defs><path d="M512 0c281.6 0 512 230.4 512 512s-230.4 512-512 512S0 793.6 0 512 230.4 0 512 0z m153.6 307.2c20.48-20.48 30.72-51.2 20.48-81.92-10.24-30.72-40.96-46.08-66.56-46.08-10.24 0-20.48 0-30.72 5.12l-40.96 20.48c-10.24 5.12-20.48 5.12-30.72 5.12-10.24 0-20.48 0-30.72-5.12l-35.84-15.36c-10.24-5.12-20.48-5.12-30.72-5.12-30.72 0-56.32 15.36-66.56 46.08-10.24 30.72 0 61.44 20.48 81.92-81.92 51.2-138.24 143.36-138.24 245.76 0 158.72 128 286.72 286.72 286.72s286.72-128 286.72-286.72C808.96 450.56 752.64 358.4 665.6 307.2z m-51.2 245.76h-71.68v-30.72H614.4c10.24 0 20.48-10.24 20.48-25.6 0-10.24-10.24-20.48-20.48-20.48h-46.08l61.44-61.44c10.24-10.24 10.24-20.48 0-30.72-10.24-10.24-20.48-10.24-30.72 0L522.24 460.8h-5.12L445.44 384c-5.12-10.24-20.48-10.24-30.72 0-10.24 10.24-10.24 20.48 0 30.72l61.44 61.44h-46.08c-10.24 0-20.48 15.36-20.48 25.6s10.24 20.48 20.48 20.48h71.68v30.72H430.08c-10.24 0-20.48 10.24-20.48 25.6 0 10.24 10.24 20.48 20.48 20.48h71.68v76.8c0 10.24 10.24 20.48 20.48 20.48s20.48-10.24 20.48-20.48v-76.8H614.4c10.24 0 20.48-10.24 20.48-25.6 0-10.24-10.24-20.48-20.48-20.48z" fill="#FFC301" p-id="3169"></path></svg>